<?xml version="1.0" encoding="utf-8" standalone="no"?>
<!DOCTYPE svg PUBLIC "-//W3C//DTD SVG 1.1//EN"
  "http://www.w3.org/Graphics/SVG/1.1/DTD/svg11.dtd">
<svg xmlns:xlink="http://www.w3.org/1999/xlink" width="360pt" height="223.2pt" viewBox="0 0 360 223.2" xmlns="http://www.w3.org/2000/svg" version="1.1">
 <metadata>
  <rdf:RDF xmlns:dc="http://purl.org/dc/elements/1.1/" xmlns:cc="http://creativecommons.org/ns#" xmlns:rdf="http://www.w3.org/1999/02/22-rdf-syntax-ns#">
   <cc:Work>
    <dc:type rdf:resource="http://purl.org/dc/dcmitype/StillImage"/>
    <dc:date>2024-02-29T22:13:25.692261</dc:date>
    <dc:format>image/svg+xml</dc:format>
    <dc:creator>
     <cc:Agent>
      <dc:title>Matplotlib v3.8.3, https://matplotlib.org/</dc:title>
     </cc:Agent>
    </dc:creator>
   </cc:Work>
  </rdf:RDF>
 </metadata>
 <defs>
  <style type="text/css">*{stroke-linejoin: round; stroke-linecap: butt}</style>
 </defs>
 <g id="figure_1">
  <g id="patch_1">
   <path d="M 0 223.2 
L 360 223.2 
L 360 0 
L 0 0 
L 0 223.2 
z
" style="fill: none"/>
  </g>
  <g id="axes_1">
   <g id="patch_2">
    <path d="M 44.48 53.72 
L 345.17677 53.72 
L 345.17677 10.8 
L 44.48 10.8 
L 44.48 53.72 
z
" style="fill: none"/>
   </g>
   <g id="PathCollection_1">
    <defs>
     <path id="m59d1b2b22e" d="M -3 3 
L 3 -3 
M -3 -3 
L 3 3 
" style="stroke: #b301b3; stroke-width: 1.5"/>
    </defs>
    <g clip-path="url(#paa41bdc931)">
     <use xlink:href="#m59d1b2b22e" x="58.148035" y="27.126029" style="fill: #b301b3; stroke: #b301b3; stroke-width: 1.5"/>
     <use xlink:href="#m59d1b2b22e" x="69.538064" y="25.07244" style="fill: #b301b3; stroke: #b301b3; stroke-width: 1.5"/>
     <use xlink:href="#m59d1b2b22e" x="80.928093" y="12.750909" style="fill: #b301b3; stroke: #b301b3; stroke-width: 1.5"/>
     <use xlink:href="#m59d1b2b22e" x="92.318122" y="25.07244" style="fill: #b301b3; stroke: #b301b3; stroke-width: 1.5"/>
     <use xlink:href="#m59d1b2b22e" x="103.708152" y="27.126029" style="fill: #b301b3; stroke: #b301b3; stroke-width: 1.5"/>
     <use xlink:href="#m59d1b2b22e" x="115.098181" y="31.233206" style="fill: #b301b3; stroke: #b301b3; stroke-width: 1.5"/>
     <use xlink:href="#m59d1b2b22e" x="126.48821" y="14.804498" style="fill: #b301b3; stroke: #b301b3; stroke-width: 1.5"/>
     <use xlink:href="#m59d1b2b22e" x="137.878239" y="39.44756" style="fill: #b301b3; stroke: #b301b3; stroke-width: 1.5"/>
     <use xlink:href="#m59d1b2b22e" x="149.268268" y="29.179617" style="fill: #b301b3; stroke: #b301b3; stroke-width: 1.5"/>
     <use xlink:href="#m59d1b2b22e" x="160.658297" y="27.126029" style="fill: #b301b3; stroke: #b301b3; stroke-width: 1.5"/>
     <use xlink:href="#m59d1b2b22e" x="172.048327" y="47.661914" style="fill: #b301b3; stroke: #b301b3; stroke-width: 1.5"/>
     <use xlink:href="#m59d1b2b22e" x="183.438356" y="39.44756" style="fill: #b301b3; stroke: #b301b3; stroke-width: 1.5"/>
     <use xlink:href="#m59d1b2b22e" x="194.828385" y="39.44756" style="fill: #b301b3; stroke: #b301b3; stroke-width: 1.5"/>
     <use xlink:href="#m59d1b2b22e" x="206.218414" y="41.501148" style="fill: #b301b3; stroke: #b301b3; stroke-width: 1.5"/>
     <use xlink:href="#m59d1b2b22e" x="217.608443" y="43.554737" style="fill: #b301b3; stroke: #b301b3; stroke-width: 1.5"/>
     <use xlink:href="#m59d1b2b22e" x="228.998472" y="51.769091" style="fill: #b301b3; stroke: #b301b3; stroke-width: 1.5"/>
     <use xlink:href="#m59d1b2b22e" x="240.388502" y="47.661914" style="fill: #b301b3; stroke: #b301b3; stroke-width: 1.5"/>
     <use xlink:href="#m59d1b2b22e" x="251.778531" y="45.608325" style="fill: #b301b3; stroke: #b301b3; stroke-width: 1.5"/>
     <use xlink:href="#m59d1b2b22e" x="263.16856" y="41.501148" style="fill: #b301b3; stroke: #b301b3; stroke-width: 1.5"/>
     <use xlink:href="#m59d1b2b22e" x="274.558589" y="43.554737" style="fill: #b301b3; stroke: #b301b3; stroke-width: 1.5"/>
     <use xlink:href="#m59d1b2b22e" x="285.948618" y="27.126029" style="fill: #b301b3; stroke: #b301b3; stroke-width: 1.5"/>
     <use xlink:href="#m59d1b2b22e" x="297.338647" y="20.965263" style="fill: #b301b3; stroke: #b301b3; stroke-width: 1.5"/>
     <use xlink:href="#m59d1b2b22e" x="308.728677" y="25.07244" style="fill: #b301b3; stroke: #b301b3; stroke-width: 1.5"/>
     <use xlink:href="#m59d1b2b22e" x="320.118706" y="31.233206" style="fill: #b301b3; stroke: #b301b3; stroke-width: 1.5"/>
     <use xlink:href="#m59d1b2b22e" x="331.508735" y="33.286794" style="fill: #b301b3; stroke: #b301b3; stroke-width: 1.5"/>
    </g>
   </g>
   <g id="matplotlib.axis_1">
    <g id="xtick_1">
     <g id="line2d_1">
      <defs>
       <path id="m2145bd22db" d="M 0 0 
L 0 3.5 
" style="stroke: #000000; stroke-width: 0.8"/>
      </defs>
      <g>
       <use xlink:href="#m2145bd22db" x="58.148035" y="53.72" style="stroke: #000000; stroke-width: 0.8"/>
      </g>
     </g>
     <g id="text_1">
      <!-- 0 -->
      <g transform="translate(54.966785 68.318437) scale(0.1 -0.1)">
       <defs>
        <path id="DejaVuSans-30" d="M 2034 4250 
Q 1547 4250 1301 3770 
Q 1056 3291 1056 2328 
Q 1056 1369 1301 889 
Q 1547 409 2034 409 
Q 2525 409 2770 889 
Q 3016 1369 3016 2328 
Q 3016 3291 2770 3770 
Q 2525 4250 2034 4250 
z
M 2034 4750 
Q 2819 4750 3233 4129 
Q 3647 3509 3647 2328 
Q 3647 1150 3233 529 
Q 2819 -91 2034 -91 
Q 1250 -91 836 529 
Q 422 1150 422 2328 
Q 422 3509 836 4129 
Q 1250 4750 2034 4750 
z
" transform="scale(0.015625)"/>
       </defs>
       <use xlink:href="#DejaVuSans-30"/>
      </g>
     </g>
    </g>
    <g id="xtick_2">
     <g id="line2d_2">
      <g>
       <use xlink:href="#m2145bd22db" x="115.098181" y="53.72" style="stroke: #000000; stroke-width: 0.8"/>
      </g>
     </g>
     <g id="text_2">
      <!-- 5 -->
      <g transform="translate(111.916931 68.318437) scale(0.1 -0.1)">
       <defs>
        <path id="DejaVuSans-35" d="M 691 4666 
L 3169 4666 
L 3169 4134 
L 1269 4134 
L 1269 2991 
Q 1406 3038 1543 3061 
Q 1681 3084 1819 3084 
Q 2600 3084 3056 2656 
Q 3513 2228 3513 1497 
Q 3513 744 3044 326 
Q 2575 -91 1722 -91 
Q 1428 -91 1123 -41 
Q 819 9 494 109 
L 494 744 
Q 775 591 1075 516 
Q 1375 441 1709 441 
Q 2250 441 2565 725 
Q 2881 1009 2881 1497 
Q 2881 1984 2565 2268 
Q 2250 2553 1709 2553 
Q 1456 2553 1204 2497 
Q 953 2441 691 2322 
L 691 4666 
z
" transform="scale(0.015625)"/>
       </defs>
       <use xlink:href="#DejaVuSans-35"/>
      </g>
     </g>
    </g>
    <g id="xtick_3">
     <g id="line2d_3">
      <g>
       <use xlink:href="#m2145bd22db" x="172.048327" y="53.72" style="stroke: #000000; stroke-width: 0.8"/>
      </g>
     </g>
     <g id="text_3">
      <!-- 10 -->
      <g transform="translate(165.685827 68.318437) scale(0.1 -0.1)">
       <defs>
        <path id="DejaVuSans-31" d="M 794 531 
L 1825 531 
L 1825 4091 
L 703 3866 
L 703 4441 
L 1819 4666 
L 2450 4666 
L 2450 531 
L 3481 531 
L 3481 0 
L 794 0 
L 794 531 
z
" transform="scale(0.015625)"/>
       </defs>
       <use xlink:href="#DejaVuSans-31"/>
       <use xlink:href="#DejaVuSans-30" x="63.623047"/>
      </g>
     </g>
    </g>
    <g id="xtick_4">
     <g id="line2d_4">
      <g>
       <use xlink:href="#m2145bd22db" x="228.998472" y="53.72" style="stroke: #000000; stroke-width: 0.8"/>
      </g>
     </g>
     <g id="text_4">
      <!-- 15 -->
      <g transform="translate(222.635972 68.318437) scale(0.1 -0.1)">
       <use xlink:href="#DejaVuSans-31"/>
       <use xlink:href="#DejaVuSans-35" x="63.623047"/>
      </g>
     </g>
    </g>
    <g id="xtick_5">
     <g id="line2d_5">
      <g>
       <use xlink:href="#m2145bd22db" x="285.948618" y="53.72" style="stroke: #000000; stroke-width: 0.8"/>
      </g>
     </g>
     <g id="text_5">
      <!-- 20 -->
      <g transform="translate(279.586118 68.318437) scale(0.1 -0.1)">
       <defs>
        <path id="DejaVuSans-32" d="M 1228 531 
L 3431 531 
L 3431 0 
L 469 0 
L 469 531 
Q 828 903 1448 1529 
Q 2069 2156 2228 2338 
Q 2531 2678 2651 2914 
Q 2772 3150 2772 3378 
Q 2772 3750 2511 3984 
Q 2250 4219 1831 4219 
Q 1534 4219 1204 4116 
Q 875 4013 500 3803 
L 500 4441 
Q 881 4594 1212 4672 
Q 1544 4750 1819 4750 
Q 2544 4750 2975 4387 
Q 3406 4025 3406 3419 
Q 3406 3131 3298 2873 
Q 3191 2616 2906 2266 
Q 2828 2175 2409 1742 
Q 1991 1309 1228 531 
z
" transform="scale(0.015625)"/>
       </defs>
       <use xlink:href="#DejaVuSans-32"/>
       <use xlink:href="#DejaVuSans-30" x="63.623047"/>
      </g>
     </g>
    </g>
    <g id="xtick_6">
     <g id="line2d_6">
      <g>
       <use xlink:href="#m2145bd22db" x="342.898764" y="53.72" style="stroke: #000000; stroke-width: 0.8"/>
      </g>
     </g>
     <g id="text_6">
      <!-- 25 -->
      <g transform="translate(336.536264 68.318437) scale(0.1 -0.1)">
       <use xlink:href="#DejaVuSans-32"/>
       <use xlink:href="#DejaVuSans-35" x="63.623047"/>
      </g>
     </g>
    </g>
   </g>
   <g id="matplotlib.axis_2">
    <g id="ytick_1">
     <g id="line2d_7">
      <defs>
       <path id="m1f01f34d72" d="M 0 0 
L -3.5 0 
" style="stroke: #000000; stroke-width: 0.8"/>
      </defs>
      <g>
       <use xlink:href="#m1f01f34d72" x="44.48" y="43.554737" style="stroke: #000000; stroke-width: 0.8"/>
      </g>
     </g>
     <g id="text_7">
      <!-- 30 -->
      <g transform="translate(24.755 47.353956) scale(0.1 -0.1)">
       <defs>
        <path id="DejaVuSans-33" d="M 2597 2516 
Q 3050 2419 3304 2112 
Q 3559 1806 3559 1356 
Q 3559 666 3084 287 
Q 2609 -91 1734 -91 
Q 1441 -91 1130 -33 
Q 819 25 488 141 
L 488 750 
Q 750 597 1062 519 
Q 1375 441 1716 441 
Q 2309 441 2620 675 
Q 2931 909 2931 1356 
Q 2931 1769 2642 2001 
Q 2353 2234 1838 2234 
L 1294 2234 
L 1294 2753 
L 1863 2753 
Q 2328 2753 2575 2939 
Q 2822 3125 2822 3475 
Q 2822 3834 2567 4026 
Q 2313 4219 1838 4219 
Q 1578 4219 1281 4162 
Q 984 4106 628 3988 
L 628 4550 
Q 988 4650 1302 4700 
Q 1616 4750 1894 4750 
Q 2613 4750 3031 4423 
Q 3450 4097 3450 3541 
Q 3450 3153 3228 2886 
Q 3006 2619 2597 2516 
z
" transform="scale(0.015625)"/>
       </defs>
       <use xlink:href="#DejaVuSans-33"/>
       <use xlink:href="#DejaVuSans-30" x="63.623047"/>
      </g>
     </g>
    </g>
    <g id="ytick_2">
     <g id="line2d_8">
      <g>
       <use xlink:href="#m1f01f34d72" x="44.48" y="23.018852" style="stroke: #000000; stroke-width: 0.8"/>
      </g>
     </g>
     <g id="text_8">
      <!-- 40 -->
      <g transform="translate(24.755 26.81807) scale(0.1 -0.1)">
       <defs>
        <path id="DejaVuSans-34" d="M 2419 4116 
L 825 1625 
L 2419 1625 
L 2419 4116 
z
M 2253 4666 
L 3047 4666 
L 3047 1625 
L 3713 1625 
L 3713 1100 
L 3047 1100 
L 3047 0 
L 2419 0 
L 2419 1100 
L 313 1100 
L 313 1709 
L 2253 4666 
z
" transform="scale(0.015625)"/>
       </defs>
       <use xlink:href="#DejaVuSans-34"/>
       <use xlink:href="#DejaVuSans-30" x="63.623047"/>
      </g>
     </g>
    </g>
    <g id="text_9">
     <!-- dim 0 -->
     <g transform="translate(18.675313 46.463906) rotate(-90) scale(0.1 -0.1)">
      <defs>
       <path id="DejaVuSans-64" d="M 2906 2969 
L 2906 4863 
L 3481 4863 
L 3481 0 
L 2906 0 
L 2906 525 
Q 2725 213 2448 61 
Q 2172 -91 1784 -91 
Q 1150 -91 751 415 
Q 353 922 353 1747 
Q 353 2572 751 3078 
Q 1150 3584 1784 3584 
Q 2172 3584 2448 3432 
Q 2725 3281 2906 2969 
z
M 947 1747 
Q 947 1113 1208 752 
Q 1469 391 1925 391 
Q 2381 391 2643 752 
Q 2906 1113 2906 1747 
Q 2906 2381 2643 2742 
Q 2381 3103 1925 3103 
Q 1469 3103 1208 2742 
Q 947 2381 947 1747 
z
" transform="scale(0.015625)"/>
       <path id="DejaVuSans-69" d="M 603 3500 
L 1178 3500 
L 1178 0 
L 603 0 
L 603 3500 
z
M 603 4863 
L 1178 4863 
L 1178 4134 
L 603 4134 
L 603 4863 
z
" transform="scale(0.015625)"/>
       <path id="DejaVuSans-6d" d="M 3328 2828 
Q 3544 3216 3844 3400 
Q 4144 3584 4550 3584 
Q 5097 3584 5394 3201 
Q 5691 2819 5691 2113 
L 5691 0 
L 5113 0 
L 5113 2094 
Q 5113 2597 4934 2840 
Q 4756 3084 4391 3084 
Q 3944 3084 3684 2787 
Q 3425 2491 3425 1978 
L 3425 0 
L 2847 0 
L 2847 2094 
Q 2847 2600 2669 2842 
Q 2491 3084 2119 3084 
Q 1678 3084 1418 2786 
Q 1159 2488 1159 1978 
L 1159 0 
L 581 0 
L 581 3500 
L 1159 3500 
L 1159 2956 
Q 1356 3278 1631 3431 
Q 1906 3584 2284 3584 
Q 2666 3584 2933 3390 
Q 3200 3197 3328 2828 
z
" transform="scale(0.015625)"/>
       <path id="DejaVuSans-20" transform="scale(0.015625)"/>
      </defs>
      <use xlink:href="#DejaVuSans-64"/>
      <use xlink:href="#DejaVuSans-69" x="63.476562"/>
      <use xlink:href="#DejaVuSans-6d" x="91.259766"/>
      <use xlink:href="#DejaVuSans-20" x="188.671875"/>
      <use xlink:href="#DejaVuSans-30" x="220.458984"/>
     </g>
    </g>
   </g>
   <g id="patch_3">
    <path d="M 44.48 53.72 
L 44.48 10.8 
" style="fill: none; stroke: #000000; stroke-width: 0.8; stroke-linejoin: miter; stroke-linecap: square"/>
   </g>
   <g id="patch_4">
    <path d="M 345.17677 53.72 
L 345.17677 10.8 
" style="fill: none; stroke: #000000; stroke-width: 0.8; stroke-linejoin: miter; stroke-linecap: square"/>
   </g>
   <g id="patch_5">
    <path d="M 44.48 53.72 
L 345.17677 53.72 
" style="fill: none; stroke: #000000; stroke-width: 0.8; stroke-linejoin: miter; stroke-linecap: square"/>
   </g>
   <g id="patch_6">
    <path d="M 44.48 10.8 
L 345.17677 10.8 
" style="fill: none; stroke: #000000; stroke-width: 0.8; stroke-linejoin: miter; stroke-linecap: square"/>
   </g>
  </g>
  <g id="axes_2">
   <g id="patch_7">
    <path d="M 44.48 124.52 
L 345.17677 124.52 
L 345.17677 81.6 
L 44.48 81.6 
L 44.48 124.52 
z
" style="fill: none"/>
   </g>
   <g id="PathCollection_2">
    <defs>
     <path id="mb19899acc0" d="M -3 3 
L 3 -3 
M -3 -3 
L 3 3 
" style="stroke: #ca7b81; stroke-width: 1.5"/>
    </defs>
    <g clip-path="url(#p33735bed1a)">
     <use xlink:href="#mb19899acc0" x="58.148035" y="97.926029" style="fill: #ca7b81; stroke: #ca7b81; stroke-width: 1.5"/>
     <use xlink:href="#mb19899acc0" x="69.538064" y="95.87244" style="fill: #ca7b81; stroke: #ca7b81; stroke-width: 1.5"/>
     <use xlink:href="#mb19899acc0" x="80.928093" y="83.550909" style="fill: #ca7b81; stroke: #ca7b81; stroke-width: 1.5"/>
     <use xlink:href="#mb19899acc0" x="92.318122" y="95.87244" style="fill: #ca7b81; stroke: #ca7b81; stroke-width: 1.5"/>
     <use xlink:href="#mb19899acc0" x="103.708152" y="97.926029" style="fill: #ca7b81; stroke: #ca7b81; stroke-width: 1.5"/>
     <use xlink:href="#mb19899acc0" x="115.098181" y="102.033206" style="fill: #ca7b81; stroke: #ca7b81; stroke-width: 1.5"/>
     <use xlink:href="#mb19899acc0" x="126.48821" y="85.604498" style="fill: #ca7b81; stroke: #ca7b81; stroke-width: 1.5"/>
     <use xlink:href="#mb19899acc0" x="137.878239" y="110.24756" style="fill: #ca7b81; stroke: #ca7b81; stroke-width: 1.5"/>
     <use xlink:href="#mb19899acc0" x="149.268268" y="99.979617" style="fill: #ca7b81; stroke: #ca7b81; stroke-width: 1.5"/>
     <use xlink:href="#mb19899acc0" x="160.658297" y="97.926029" style="fill: #ca7b81; stroke: #ca7b81; stroke-width: 1.5"/>
     <use xlink:href="#mb19899acc0" x="172.048327" y="118.461914" style="fill: #ca7b81; stroke: #ca7b81; stroke-width: 1.5"/>
     <use xlink:href="#mb19899acc0" x="183.438356" y="110.24756" style="fill: #ca7b81; stroke: #ca7b81; stroke-width: 1.5"/>
     <use xlink:href="#mb19899acc0" x="194.828385" y="110.24756" style="fill: #ca7b81; stroke: #ca7b81; stroke-width: 1.5"/>
     <use xlink:href="#mb19899acc0" x="206.218414" y="112.301148" style="fill: #ca7b81; stroke: #ca7b81; stroke-width: 1.5"/>
     <use xlink:href="#mb19899acc0" x="217.608443" y="114.354737" style="fill: #ca7b81; stroke: #ca7b81; stroke-width: 1.5"/>
     <use xlink:href="#mb19899acc0" x="228.998472" y="122.569091" style="fill: #ca7b81; stroke: #ca7b81; stroke-width: 1.5"/>
     <use xlink:href="#mb19899acc0" x="240.388502" y="118.461914" style="fill: #ca7b81; stroke: #ca7b81; stroke-width: 1.5"/>
     <use xlink:href="#mb19899acc0" x="251.778531" y="116.408325" style="fill: #ca7b81; stroke: #ca7b81; stroke-width: 1.5"/>
     <use xlink:href="#mb19899acc0" x="263.16856" y="112.301148" style="fill: #ca7b81; stroke: #ca7b81; stroke-width: 1.5"/>
     <use xlink:href="#mb19899acc0" x="274.558589" y="114.354737" style="fill: #ca7b81; stroke: #ca7b81; stroke-width: 1.5"/>
     <use xlink:href="#mb19899acc0" x="285.948618" y="97.926029" style="fill: #ca7b81; stroke: #ca7b81; stroke-width: 1.5"/>
     <use xlink:href="#mb19899acc0" x="297.338647" y="91.765263" style="fill: #ca7b81; stroke: #ca7b81; stroke-width: 1.5"/>
     <use xlink:href="#mb19899acc0" x="308.728677" y="95.87244" style="fill: #ca7b81; stroke: #ca7b81; stroke-width: 1.5"/>
     <use xlink:href="#mb19899acc0" x="320.118706" y="102.033206" style="fill: #ca7b81; stroke: #ca7b81; stroke-width: 1.5"/>
     <use xlink:href="#mb19899acc0" x="331.508735" y="104.086794" style="fill: #ca7b81; stroke: #ca7b81; stroke-width: 1.5"/>
    </g>
   </g>
   <g id="matplotlib.axis_3">
    <g id="xtick_7">
     <g id="line2d_9">
      <g>
       <use xlink:href="#m2145bd22db" x="58.148035" y="124.52" style="stroke: #000000; stroke-width: 0.8"/>
      </g>
     </g>
     <g id="text_10">
      <!-- 0 -->
      <g transform="translate(54.966785 139.118437) scale(0.1 -0.1)">
       <use xlink:href="#DejaVuSans-30"/>
      </g>
     </g>
    </g>
    <g id="xtick_8">
     <g id="line2d_10">
      <g>
       <use xlink:href="#m2145bd22db" x="115.098181" y="124.52" style="stroke: #000000; stroke-width: 0.8"/>
      </g>
     </g>
     <g id="text_11">
      <!-- 5 -->
      <g transform="translate(111.916931 139.118437) scale(0.1 -0.1)">
       <use xlink:href="#DejaVuSans-35"/>
      </g>
     </g>
    </g>
    <g id="xtick_9">
     <g id="line2d_11">
      <g>
       <use xlink:href="#m2145bd22db" x="172.048327" y="124.52" style="stroke: #000000; stroke-width: 0.8"/>
      </g>
     </g>
     <g id="text_12">
      <!-- 10 -->
      <g transform="translate(165.685827 139.118437) scale(0.1 -0.1)">
       <use xlink:href="#DejaVuSans-31"/>
       <use xlink:href="#DejaVuSans-30" x="63.623047"/>
      </g>
     </g>
    </g>
    <g id="xtick_10">
     <g id="line2d_12">
      <g>
       <use xlink:href="#m2145bd22db" x="228.998472" y="124.52" style="stroke: #000000; stroke-width: 0.8"/>
      </g>
     </g>
     <g id="text_13">
      <!-- 15 -->
      <g transform="translate(222.635972 139.118437) scale(0.1 -0.1)">
       <use xlink:href="#DejaVuSans-31"/>
       <use xlink:href="#DejaVuSans-35" x="63.623047"/>
      </g>
     </g>
    </g>
    <g id="xtick_11">
     <g id="line2d_13">
      <g>
       <use xlink:href="#m2145bd22db" x="285.948618" y="124.52" style="stroke: #000000; stroke-width: 0.8"/>
      </g>
     </g>
     <g id="text_14">
      <!-- 20 -->
      <g transform="translate(279.586118 139.118437) scale(0.1 -0.1)">
       <use xlink:href="#DejaVuSans-32"/>
       <use xlink:href="#DejaVuSans-30" x="63.623047"/>
      </g>
     </g>
    </g>
    <g id="xtick_12">
     <g id="line2d_14">
      <g>
       <use xlink:href="#m2145bd22db" x="342.898764" y="124.52" style="stroke: #000000; stroke-width: 0.8"/>
      </g>
     </g>
     <g id="text_15">
      <!-- 25 -->
      <g transform="translate(336.536264 139.118437) scale(0.1 -0.1)">
       <use xlink:href="#DejaVuSans-32"/>
       <use xlink:href="#DejaVuSans-35" x="63.623047"/>
      </g>
     </g>
    </g>
   </g>
   <g id="matplotlib.axis_4">
    <g id="ytick_3">
     <g id="line2d_15">
      <g>
       <use xlink:href="#m1f01f34d72" x="44.48" y="114.354737" style="stroke: #000000; stroke-width: 0.8"/>
      </g>
     </g>
     <g id="text_16">
      <!-- 30 -->
      <g transform="translate(24.755 118.153956) scale(0.1 -0.1)">
       <use xlink:href="#DejaVuSans-33"/>
       <use xlink:href="#DejaVuSans-30" x="63.623047"/>
      </g>
     </g>
    </g>
    <g id="ytick_4">
     <g id="line2d_16">
      <g>
       <use xlink:href="#m1f01f34d72" x="44.48" y="93.818852" style="stroke: #000000; stroke-width: 0.8"/>
      </g>
     </g>
     <g id="text_17">
      <!-- 40 -->
      <g transform="translate(24.755 97.61807) scale(0.1 -0.1)">
       <use xlink:href="#DejaVuSans-34"/>
       <use xlink:href="#DejaVuSans-30" x="63.623047"/>
      </g>
     </g>
    </g>
    <g id="text_18">
     <!-- dim 1 -->
     <g transform="translate(18.675313 117.263906) rotate(-90) scale(0.1 -0.1)">
      <use xlink:href="#DejaVuSans-64"/>
      <use xlink:href="#DejaVuSans-69" x="63.476562"/>
      <use xlink:href="#DejaVuSans-6d" x="91.259766"/>
      <use xlink:href="#DejaVuSans-20" x="188.671875"/>
      <use xlink:href="#DejaVuSans-31" x="220.458984"/>
     </g>
    </g>
   </g>
   <g id="patch_8">
    <path d="M 44.48 124.52 
L 44.48 81.6 
" style="fill: none; stroke: #000000; stroke-width: 0.8; stroke-linejoin: miter; stroke-linecap: square"/>
   </g>
   <g id="patch_9">
    <path d="M 345.17677 124.52 
L 345.17677 81.6 
" style="fill: none; stroke: #000000; stroke-width: 0.8; stroke-linejoin: miter; stroke-linecap: square"/>
   </g>
   <g id="patch_10">
    <path d="M 44.48 124.52 
L 345.17677 124.52 
" style="fill: none; stroke: #000000; stroke-width: 0.8; stroke-linejoin: miter; stroke-linecap: square"/>
   </g>
   <g id="patch_11">
    <path d="M 44.48 81.6 
L 345.17677 81.6 
" style="fill: none; stroke: #000000; stroke-width: 0.8; stroke-linejoin: miter; stroke-linecap: square"/>
   </g>
  </g>
  <g id="axes_3">
   <g id="patch_12">
    <path d="M 44.48 195.32 
L 345.17677 195.32 
L 345.17677 152.4 
L 44.48 152.4 
L 44.48 195.32 
z
" style="fill: none"/>
   </g>
   <g id="PathCollection_3">
    <defs>
     <path id="m428f0bc8a6" d="M -3 3 
L 3 -3 
M -3 -3 
L 3 3 
" style="stroke: #e8e467; stroke-width: 1.5"/>
    </defs>
    <g clip-path="url(#p22838ee95e)">
     <use xlink:href="#m428f0bc8a6" x="58.148035" y="168.726029" style="fill: #e8e467; stroke: #e8e467; stroke-width: 1.5"/>
     <use xlink:href="#m428f0bc8a6" x="69.538064" y="166.67244" style="fill: #e8e467; stroke: #e8e467; stroke-width: 1.5"/>
     <use xlink:href="#m428f0bc8a6" x="80.928093" y="154.350909" style="fill: #e8e467; stroke: #e8e467; stroke-width: 1.5"/>
     <use xlink:href="#m428f0bc8a6" x="92.318122" y="166.67244" style="fill: #e8e467; stroke: #e8e467; stroke-width: 1.5"/>
     <use xlink:href="#m428f0bc8a6" x="103.708152" y="168.726029" style="fill: #e8e467; stroke: #e8e467; stroke-width: 1.5"/>
     <use xlink:href="#m428f0bc8a6" x="115.098181" y="172.833206" style="fill: #e8e467; stroke: #e8e467; stroke-width: 1.5"/>
     <use xlink:href="#m428f0bc8a6" x="126.48821" y="156.404498" style="fill: #e8e467; stroke: #e8e467; stroke-width: 1.5"/>
     <use xlink:href="#m428f0bc8a6" x="137.878239" y="181.04756" style="fill: #e8e467; stroke: #e8e467; stroke-width: 1.5"/>
     <use xlink:href="#m428f0bc8a6" x="149.268268" y="170.779617" style="fill: #e8e467; stroke: #e8e467; stroke-width: 1.5"/>
     <use xlink:href="#m428f0bc8a6" x="160.658297" y="168.726029" style="fill: #e8e467; stroke: #e8e467; stroke-width: 1.5"/>
     <use xlink:href="#m428f0bc8a6" x="172.048327" y="189.261914" style="fill: #e8e467; stroke: #e8e467; stroke-width: 1.5"/>
     <use xlink:href="#m428f0bc8a6" x="183.438356" y="181.04756" style="fill: #e8e467; stroke: #e8e467; stroke-width: 1.5"/>
     <use xlink:href="#m428f0bc8a6" x="194.828385" y="181.04756" style="fill: #e8e467; stroke: #e8e467; stroke-width: 1.5"/>
     <use xlink:href="#m428f0bc8a6" x="206.218414" y="183.101148" style="fill: #e8e467; stroke: #e8e467; stroke-width: 1.5"/>
     <use xlink:href="#m428f0bc8a6" x="217.608443" y="185.154737" style="fill: #e8e467; stroke: #e8e467; stroke-width: 1.5"/>
     <use xlink:href="#m428f0bc8a6" x="228.998472" y="193.369091" style="fill: #e8e467; stroke: #e8e467; stroke-width: 1.5"/>
     <use xlink:href="#m428f0bc8a6" x="240.388502" y="189.261914" style="fill: #e8e467; stroke: #e8e467; stroke-width: 1.5"/>
     <use xlink:href="#m428f0bc8a6" x="251.778531" y="187.208325" style="fill: #e8e467; stroke: #e8e467; stroke-width: 1.5"/>
     <use xlink:href="#m428f0bc8a6" x="263.16856" y="183.101148" style="fill: #e8e467; stroke: #e8e467; stroke-width: 1.5"/>
     <use xlink:href="#m428f0bc8a6" x="274.558589" y="185.154737" style="fill: #e8e467; stroke: #e8e467; stroke-width: 1.5"/>
     <use xlink:href="#m428f0bc8a6" x="285.948618" y="168.726029" style="fill: #e8e467; stroke: #e8e467; stroke-width: 1.5"/>
     <use xlink:href="#m428f0bc8a6" x="297.338647" y="162.565263" style="fill: #e8e467; stroke: #e8e467; stroke-width: 1.5"/>
     <use xlink:href="#m428f0bc8a6" x="308.728677" y="166.67244" style="fill: #e8e467; stroke: #e8e467; stroke-width: 1.5"/>
     <use xlink:href="#m428f0bc8a6" x="320.118706" y="172.833206" style="fill: #e8e467; stroke: #e8e467; stroke-width: 1.5"/>
     <use xlink:href="#m428f0bc8a6" x="331.508735" y="174.886794" style="fill: #e8e467; stroke: #e8e467; stroke-width: 1.5"/>
    </g>
   </g>
   <g id="matplotlib.axis_5">
    <g id="xtick_13">
     <g id="line2d_17">
      <g>
       <use xlink:href="#m2145bd22db" x="58.148035" y="195.32" style="stroke: #000000; stroke-width: 0.8"/>
      </g>
     </g>
     <g id="text_19">
      <!-- 0 -->
      <g transform="translate(54.966785 209.918438) scale(0.1 -0.1)">
       <use xlink:href="#DejaVuSans-30"/>
      </g>
     </g>
    </g>
    <g id="xtick_14">
     <g id="line2d_18">
      <g>
       <use xlink:href="#m2145bd22db" x="115.098181" y="195.32" style="stroke: #000000; stroke-width: 0.8"/>
      </g>
     </g>
     <g id="text_20">
      <!-- 5 -->
      <g transform="translate(111.916931 209.918438) scale(0.1 -0.1)">
       <use xlink:href="#DejaVuSans-35"/>
      </g>
     </g>
    </g>
    <g id="xtick_15">
     <g id="line2d_19">
      <g>
       <use xlink:href="#m2145bd22db" x="172.048327" y="195.32" style="stroke: #000000; stroke-width: 0.8"/>
      </g>
     </g>
     <g id="text_21">
      <!-- 10 -->
      <g transform="translate(165.685827 209.918438) scale(0.1 -0.1)">
       <use xlink:href="#DejaVuSans-31"/>
       <use xlink:href="#DejaVuSans-30" x="63.623047"/>
      </g>
     </g>
    </g>
    <g id="xtick_16">
     <g id="line2d_20">
      <g>
       <use xlink:href="#m2145bd22db" x="228.998472" y="195.32" style="stroke: #000000; stroke-width: 0.8"/>
      </g>
     </g>
     <g id="text_22">
      <!-- 15 -->
      <g transform="translate(222.635972 209.918438) scale(0.1 -0.1)">
       <use xlink:href="#DejaVuSans-31"/>
       <use xlink:href="#DejaVuSans-35" x="63.623047"/>
      </g>
     </g>
    </g>
    <g id="xtick_17">
     <g id="line2d_21">
      <g>
       <use xlink:href="#m2145bd22db" x="285.948618" y="195.32" style="stroke: #000000; stroke-width: 0.8"/>
      </g>
     </g>
     <g id="text_23">
      <!-- 20 -->
      <g transform="translate(279.586118 209.918438) scale(0.1 -0.1)">
       <use xlink:href="#DejaVuSans-32"/>
       <use xlink:href="#DejaVuSans-30" x="63.623047"/>
      </g>
     </g>
    </g>
    <g id="xtick_18">
     <g id="line2d_22">
      <g>
       <use xlink:href="#m2145bd22db" x="342.898764" y="195.32" style="stroke: #000000; stroke-width: 0.8"/>
      </g>
     </g>
     <g id="text_24">
      <!-- 25 -->
      <g transform="translate(336.536264 209.918438) scale(0.1 -0.1)">
       <use xlink:href="#DejaVuSans-32"/>
       <use xlink:href="#DejaVuSans-35" x="63.623047"/>
      </g>
     </g>
    </g>
   </g>
   <g id="matplotlib.axis_6">
    <g id="ytick_5">
     <g id="line2d_23">
      <g>
       <use xlink:href="#m1f01f34d72" x="44.48" y="185.154737" style="stroke: #000000; stroke-width: 0.8"/>
      </g>
     </g>
     <g id="text_25">
      <!-- 30 -->
      <g transform="translate(24.755 188.953956) scale(0.1 -0.1)">
       <use xlink:href="#DejaVuSans-33"/>
       <use xlink:href="#DejaVuSans-30" x="63.623047"/>
      </g>
     </g>
    </g>
    <g id="ytick_6">
     <g id="line2d_24">
      <g>
       <use xlink:href="#m1f01f34d72" x="44.48" y="164.618852" style="stroke: #000000; stroke-width: 0.8"/>
      </g>
     </g>
     <g id="text_26">
      <!-- 40 -->
      <g transform="translate(24.755 168.41807) scale(0.1 -0.1)">
       <use xlink:href="#DejaVuSans-34"/>
       <use xlink:href="#DejaVuSans-30" x="63.623047"/>
      </g>
     </g>
    </g>
    <g id="text_27">
     <!-- dim 2 -->
     <g transform="translate(18.675313 188.063906) rotate(-90) scale(0.1 -0.1)">
      <use xlink:href="#DejaVuSans-64"/>
      <use xlink:href="#DejaVuSans-69" x="63.476562"/>
      <use xlink:href="#DejaVuSans-6d" x="91.259766"/>
      <use xlink:href="#DejaVuSans-20" x="188.671875"/>
      <use xlink:href="#DejaVuSans-32" x="220.458984"/>
     </g>
    </g>
   </g>
   <g id="patch_13">
    <path d="M 44.48 195.32 
L 44.48 152.4 
" style="fill: none; stroke: #000000; stroke-width: 0.8; stroke-linejoin: miter; stroke-linecap: square"/>
   </g>
   <g id="patch_14">
    <path d="M 345.17677 195.32 
L 345.17677 152.4 
" style="fill: none; stroke: #000000; stroke-width: 0.8; stroke-linejoin: miter; stroke-linecap: square"/>
   </g>
   <g id="patch_15">
    <path d="M 44.48 195.32 
L 345.17677 195.32 
" style="fill: none; stroke: #000000; stroke-width: 0.8; stroke-linejoin: miter; stroke-linecap: square"/>
   </g>
   <g id="patch_16">
    <path d="M 44.48 152.4 
L 345.17677 152.4 
" style="fill: none; stroke: #000000; stroke-width: 0.8; stroke-linejoin: miter; stroke-linecap: square"/>
   </g>
  </g>
 </g>
 <defs>
  <clipPath id="paa41bdc931">
   <rect x="44.48" y="10.8" width="300.69677" height="42.92"/>
  </clipPath>
  <clipPath id="p33735bed1a">
   <rect x="44.48" y="81.6" width="300.69677" height="42.92"/>
  </clipPath>
  <clipPath id="p22838ee95e">
   <rect x="44.48" y="152.4" width="300.69677" height="42.92"/>
  </clipPath>
 </defs>
</svg>
