<?xml version="1.0" encoding="utf-8" standalone="no"?>
<!DOCTYPE svg PUBLIC "-//W3C//DTD SVG 1.1//EN"
  "http://www.w3.org/Graphics/SVG/1.1/DTD/svg11.dtd">
<svg xmlns:xlink="http://www.w3.org/1999/xlink" width="360pt" height="223.2pt" viewBox="0 0 360 223.2" xmlns="http://www.w3.org/2000/svg" version="1.1">
 <metadata>
  <rdf:RDF xmlns:dc="http://purl.org/dc/elements/1.1/" xmlns:cc="http://creativecommons.org/ns#" xmlns:rdf="http://www.w3.org/1999/02/22-rdf-syntax-ns#">
   <cc:Work>
    <dc:type rdf:resource="http://purl.org/dc/dcmitype/StillImage"/>
    <dc:date>2024-06-24T13:38:45.841679</dc:date>
    <dc:format>image/svg+xml</dc:format>
    <dc:creator>
     <cc:Agent>
      <dc:title>Matplotlib v3.9.0, https://matplotlib.org/</dc:title>
     </cc:Agent>
    </dc:creator>
   </cc:Work>
  </rdf:RDF>
 </metadata>
 <defs>
  <style type="text/css">*{stroke-linejoin: round; stroke-linecap: butt}</style>
 </defs>
 <g id="figure_1">
  <g id="patch_1">
   <path d="M 0 223.2 
L 360 223.2 
L 360 0 
L 0 0 
L 0 223.2 
z
" style="fill: none"/>
  </g>
  <g id="axes_1">
   <g id="patch_2">
    <path d="M 44.57 53.72 
L 345.176088 53.72 
L 345.176088 10.8 
L 44.57 10.8 
L 44.57 53.72 
z
" style="fill: none"/>
   </g>
   <g id="PathCollection_1">
    <defs>
     <path id="mb884e4a3ec" d="M -3 3 
L 3 -3 
M -3 -3 
L 3 3 
" style="stroke: #b301b3; stroke-width: 1.5"/>
    </defs>
    <g clip-path="url(#p88c1d20670)">
     <use xlink:href="#mb884e4a3ec" x="58.233913" y="32.26" style="fill: #b301b3; stroke: #b301b3; stroke-width: 1.5"/>
     <use xlink:href="#mb884e4a3ec" x="69.620507" y="32.26" style="fill: #b301b3; stroke: #b301b3; stroke-width: 1.5"/>
     <use xlink:href="#mb884e4a3ec" x="81.007102" y="32.26" style="fill: #b301b3; stroke: #b301b3; stroke-width: 1.5"/>
     <use xlink:href="#mb884e4a3ec" x="92.393696" y="32.26" style="fill: #b301b3; stroke: #b301b3; stroke-width: 1.5"/>
     <use xlink:href="#mb884e4a3ec" x="103.78029" y="32.26" style="fill: #b301b3; stroke: #b301b3; stroke-width: 1.5"/>
     <use xlink:href="#mb884e4a3ec" x="115.166884" y="32.26" style="fill: #b301b3; stroke: #b301b3; stroke-width: 1.5"/>
     <use xlink:href="#mb884e4a3ec" x="126.553479" y="32.26" style="fill: #b301b3; stroke: #b301b3; stroke-width: 1.5"/>
     <use xlink:href="#mb884e4a3ec" x="137.940073" y="32.26" style="fill: #b301b3; stroke: #b301b3; stroke-width: 1.5"/>
     <use xlink:href="#mb884e4a3ec" x="149.326667" y="32.26" style="fill: #b301b3; stroke: #b301b3; stroke-width: 1.5"/>
     <use xlink:href="#mb884e4a3ec" x="160.713261" y="32.26" style="fill: #b301b3; stroke: #b301b3; stroke-width: 1.5"/>
     <use xlink:href="#mb884e4a3ec" x="172.099856" y="32.26" style="fill: #b301b3; stroke: #b301b3; stroke-width: 1.5"/>
     <use xlink:href="#mb884e4a3ec" x="183.48645" y="32.26" style="fill: #b301b3; stroke: #b301b3; stroke-width: 1.5"/>
     <use xlink:href="#mb884e4a3ec" x="194.873044" y="32.26" style="fill: #b301b3; stroke: #b301b3; stroke-width: 1.5"/>
     <use xlink:href="#mb884e4a3ec" x="206.259638" y="32.26" style="fill: #b301b3; stroke: #b301b3; stroke-width: 1.5"/>
     <use xlink:href="#mb884e4a3ec" x="217.646233" y="32.26" style="fill: #b301b3; stroke: #b301b3; stroke-width: 1.5"/>
     <use xlink:href="#mb884e4a3ec" x="229.032827" y="32.26" style="fill: #b301b3; stroke: #b301b3; stroke-width: 1.5"/>
     <use xlink:href="#mb884e4a3ec" x="240.419421" y="32.26" style="fill: #b301b3; stroke: #b301b3; stroke-width: 1.5"/>
     <use xlink:href="#mb884e4a3ec" x="251.806015" y="32.26" style="fill: #b301b3; stroke: #b301b3; stroke-width: 1.5"/>
     <use xlink:href="#mb884e4a3ec" x="263.19261" y="32.26" style="fill: #b301b3; stroke: #b301b3; stroke-width: 1.5"/>
     <use xlink:href="#mb884e4a3ec" x="274.579204" y="32.26" style="fill: #b301b3; stroke: #b301b3; stroke-width: 1.5"/>
     <use xlink:href="#mb884e4a3ec" x="285.965798" y="32.26" style="fill: #b301b3; stroke: #b301b3; stroke-width: 1.5"/>
     <use xlink:href="#mb884e4a3ec" x="297.352392" y="32.26" style="fill: #b301b3; stroke: #b301b3; stroke-width: 1.5"/>
     <use xlink:href="#mb884e4a3ec" x="308.738987" y="32.26" style="fill: #b301b3; stroke: #b301b3; stroke-width: 1.5"/>
     <use xlink:href="#mb884e4a3ec" x="320.125581" y="32.26" style="fill: #b301b3; stroke: #b301b3; stroke-width: 1.5"/>
     <use xlink:href="#mb884e4a3ec" x="331.512175" y="32.26" style="fill: #b301b3; stroke: #b301b3; stroke-width: 1.5"/>
    </g>
   </g>
   <g id="matplotlib.axis_1">
    <g id="xtick_1">
     <g id="line2d_1">
      <defs>
       <path id="m3fb7c5ccd0" d="M 0 0 
L 0 3.5 
" style="stroke: #000000; stroke-width: 0.8"/>
      </defs>
      <g>
       <use xlink:href="#m3fb7c5ccd0" x="58.233913" y="53.72" style="stroke: #000000; stroke-width: 0.8"/>
      </g>
     </g>
     <g id="text_1">
      <!-- 0 -->
      <g transform="translate(55.052663 68.318437) scale(0.1 -0.1)">
       <defs>
        <path id="DejaVuSans-30" d="M 2034 4250 
Q 1547 4250 1301 3770 
Q 1056 3291 1056 2328 
Q 1056 1369 1301 889 
Q 1547 409 2034 409 
Q 2525 409 2770 889 
Q 3016 1369 3016 2328 
Q 3016 3291 2770 3770 
Q 2525 4250 2034 4250 
z
M 2034 4750 
Q 2819 4750 3233 4129 
Q 3647 3509 3647 2328 
Q 3647 1150 3233 529 
Q 2819 -91 2034 -91 
Q 1250 -91 836 529 
Q 422 1150 422 2328 
Q 422 3509 836 4129 
Q 1250 4750 2034 4750 
z
" transform="scale(0.015625)"/>
       </defs>
       <use xlink:href="#DejaVuSans-30"/>
      </g>
     </g>
    </g>
    <g id="xtick_2">
     <g id="line2d_2">
      <g>
       <use xlink:href="#m3fb7c5ccd0" x="115.166884" y="53.72" style="stroke: #000000; stroke-width: 0.8"/>
      </g>
     </g>
     <g id="text_2">
      <!-- 5 -->
      <g transform="translate(111.985634 68.318437) scale(0.1 -0.1)">
       <defs>
        <path id="DejaVuSans-35" d="M 691 4666 
L 3169 4666 
L 3169 4134 
L 1269 4134 
L 1269 2991 
Q 1406 3038 1543 3061 
Q 1681 3084 1819 3084 
Q 2600 3084 3056 2656 
Q 3513 2228 3513 1497 
Q 3513 744 3044 326 
Q 2575 -91 1722 -91 
Q 1428 -91 1123 -41 
Q 819 9 494 109 
L 494 744 
Q 775 591 1075 516 
Q 1375 441 1709 441 
Q 2250 441 2565 725 
Q 2881 1009 2881 1497 
Q 2881 1984 2565 2268 
Q 2250 2553 1709 2553 
Q 1456 2553 1204 2497 
Q 953 2441 691 2322 
L 691 4666 
z
" transform="scale(0.015625)"/>
       </defs>
       <use xlink:href="#DejaVuSans-35"/>
      </g>
     </g>
    </g>
    <g id="xtick_3">
     <g id="line2d_3">
      <g>
       <use xlink:href="#m3fb7c5ccd0" x="172.099856" y="53.72" style="stroke: #000000; stroke-width: 0.8"/>
      </g>
     </g>
     <g id="text_3">
      <!-- 10 -->
      <g transform="translate(165.737356 68.318437) scale(0.1 -0.1)">
       <defs>
        <path id="DejaVuSans-31" d="M 794 531 
L 1825 531 
L 1825 4091 
L 703 3866 
L 703 4441 
L 1819 4666 
L 2450 4666 
L 2450 531 
L 3481 531 
L 3481 0 
L 794 0 
L 794 531 
z
" transform="scale(0.015625)"/>
       </defs>
       <use xlink:href="#DejaVuSans-31"/>
       <use xlink:href="#DejaVuSans-30" x="63.623047"/>
      </g>
     </g>
    </g>
    <g id="xtick_4">
     <g id="line2d_4">
      <g>
       <use xlink:href="#m3fb7c5ccd0" x="229.032827" y="53.72" style="stroke: #000000; stroke-width: 0.8"/>
      </g>
     </g>
     <g id="text_4">
      <!-- 15 -->
      <g transform="translate(222.670327 68.318437) scale(0.1 -0.1)">
       <use xlink:href="#DejaVuSans-31"/>
       <use xlink:href="#DejaVuSans-35" x="63.623047"/>
      </g>
     </g>
    </g>
    <g id="xtick_5">
     <g id="line2d_5">
      <g>
       <use xlink:href="#m3fb7c5ccd0" x="285.965798" y="53.72" style="stroke: #000000; stroke-width: 0.8"/>
      </g>
     </g>
     <g id="text_5">
      <!-- 20 -->
      <g transform="translate(279.603298 68.318437) scale(0.1 -0.1)">
       <defs>
        <path id="DejaVuSans-32" d="M 1228 531 
L 3431 531 
L 3431 0 
L 469 0 
L 469 531 
Q 828 903 1448 1529 
Q 2069 2156 2228 2338 
Q 2531 2678 2651 2914 
Q 2772 3150 2772 3378 
Q 2772 3750 2511 3984 
Q 2250 4219 1831 4219 
Q 1534 4219 1204 4116 
Q 875 4013 500 3803 
L 500 4441 
Q 881 4594 1212 4672 
Q 1544 4750 1819 4750 
Q 2544 4750 2975 4387 
Q 3406 4025 3406 3419 
Q 3406 3131 3298 2873 
Q 3191 2616 2906 2266 
Q 2828 2175 2409 1742 
Q 1991 1309 1228 531 
z
" transform="scale(0.015625)"/>
       </defs>
       <use xlink:href="#DejaVuSans-32"/>
       <use xlink:href="#DejaVuSans-30" x="63.623047"/>
      </g>
     </g>
    </g>
    <g id="xtick_6">
     <g id="line2d_6">
      <g>
       <use xlink:href="#m3fb7c5ccd0" x="342.898769" y="53.72" style="stroke: #000000; stroke-width: 0.8"/>
      </g>
     </g>
     <g id="text_6">
      <!-- 25 -->
      <g transform="translate(336.536269 68.318437) scale(0.1 -0.1)">
       <use xlink:href="#DejaVuSans-32"/>
       <use xlink:href="#DejaVuSans-35" x="63.623047"/>
      </g>
     </g>
    </g>
   </g>
   <g id="matplotlib.axis_2">
    <g id="ytick_1">
     <g id="line2d_7">
      <defs>
       <path id="m7cf739d69e" d="M 0 0 
L -3.5 0 
" style="stroke: #000000; stroke-width: 0.8"/>
      </defs>
      <g>
       <use xlink:href="#m7cf739d69e" x="44.57" y="47.266993" style="stroke: #000000; stroke-width: 0.8"/>
      </g>
     </g>
     <g id="text_7">
      <!-- 25 -->
      <g transform="translate(24.845 51.066212) scale(0.1 -0.1)">
       <use xlink:href="#DejaVuSans-32"/>
       <use xlink:href="#DejaVuSans-35" x="63.623047"/>
      </g>
     </g>
    </g>
    <g id="ytick_2">
     <g id="line2d_8">
      <g>
       <use xlink:href="#m7cf739d69e" x="44.57" y="32.26" style="stroke: #000000; stroke-width: 0.8"/>
      </g>
     </g>
     <g id="text_8">
      <!-- 26 -->
      <g transform="translate(24.845 36.059219) scale(0.1 -0.1)">
       <defs>
        <path id="DejaVuSans-36" d="M 2113 2584 
Q 1688 2584 1439 2293 
Q 1191 2003 1191 1497 
Q 1191 994 1439 701 
Q 1688 409 2113 409 
Q 2538 409 2786 701 
Q 3034 994 3034 1497 
Q 3034 2003 2786 2293 
Q 2538 2584 2113 2584 
z
M 3366 4563 
L 3366 3988 
Q 3128 4100 2886 4159 
Q 2644 4219 2406 4219 
Q 1781 4219 1451 3797 
Q 1122 3375 1075 2522 
Q 1259 2794 1537 2939 
Q 1816 3084 2150 3084 
Q 2853 3084 3261 2657 
Q 3669 2231 3669 1497 
Q 3669 778 3244 343 
Q 2819 -91 2113 -91 
Q 1303 -91 875 529 
Q 447 1150 447 2328 
Q 447 3434 972 4092 
Q 1497 4750 2381 4750 
Q 2619 4750 2861 4703 
Q 3103 4656 3366 4563 
z
" transform="scale(0.015625)"/>
       </defs>
       <use xlink:href="#DejaVuSans-32"/>
       <use xlink:href="#DejaVuSans-36" x="63.623047"/>
      </g>
     </g>
    </g>
    <g id="ytick_3">
     <g id="line2d_9">
      <g>
       <use xlink:href="#m7cf739d69e" x="44.57" y="17.253007" style="stroke: #000000; stroke-width: 0.8"/>
      </g>
     </g>
     <g id="text_9">
      <!-- 27 -->
      <g transform="translate(24.845 21.052226) scale(0.1 -0.1)">
       <defs>
        <path id="DejaVuSans-37" d="M 525 4666 
L 3525 4666 
L 3525 4397 
L 1831 0 
L 1172 0 
L 2766 4134 
L 525 4134 
L 525 4666 
z
" transform="scale(0.015625)"/>
       </defs>
       <use xlink:href="#DejaVuSans-32"/>
       <use xlink:href="#DejaVuSans-37" x="63.623047"/>
      </g>
     </g>
    </g>
    <g id="text_10">
     <!-- dim 0 -->
     <g transform="translate(18.765313 46.463906) rotate(-90) scale(0.1 -0.1)">
      <defs>
       <path id="DejaVuSans-64" d="M 2906 2969 
L 2906 4863 
L 3481 4863 
L 3481 0 
L 2906 0 
L 2906 525 
Q 2725 213 2448 61 
Q 2172 -91 1784 -91 
Q 1150 -91 751 415 
Q 353 922 353 1747 
Q 353 2572 751 3078 
Q 1150 3584 1784 3584 
Q 2172 3584 2448 3432 
Q 2725 3281 2906 2969 
z
M 947 1747 
Q 947 1113 1208 752 
Q 1469 391 1925 391 
Q 2381 391 2643 752 
Q 2906 1113 2906 1747 
Q 2906 2381 2643 2742 
Q 2381 3103 1925 3103 
Q 1469 3103 1208 2742 
Q 947 2381 947 1747 
z
" transform="scale(0.015625)"/>
       <path id="DejaVuSans-69" d="M 603 3500 
L 1178 3500 
L 1178 0 
L 603 0 
L 603 3500 
z
M 603 4863 
L 1178 4863 
L 1178 4134 
L 603 4134 
L 603 4863 
z
" transform="scale(0.015625)"/>
       <path id="DejaVuSans-6d" d="M 3328 2828 
Q 3544 3216 3844 3400 
Q 4144 3584 4550 3584 
Q 5097 3584 5394 3201 
Q 5691 2819 5691 2113 
L 5691 0 
L 5113 0 
L 5113 2094 
Q 5113 2597 4934 2840 
Q 4756 3084 4391 3084 
Q 3944 3084 3684 2787 
Q 3425 2491 3425 1978 
L 3425 0 
L 2847 0 
L 2847 2094 
Q 2847 2600 2669 2842 
Q 2491 3084 2119 3084 
Q 1678 3084 1418 2786 
Q 1159 2488 1159 1978 
L 1159 0 
L 581 0 
L 581 3500 
L 1159 3500 
L 1159 2956 
Q 1356 3278 1631 3431 
Q 1906 3584 2284 3584 
Q 2666 3584 2933 3390 
Q 3200 3197 3328 2828 
z
" transform="scale(0.015625)"/>
       <path id="DejaVuSans-20" transform="scale(0.015625)"/>
      </defs>
      <use xlink:href="#DejaVuSans-64"/>
      <use xlink:href="#DejaVuSans-69" x="63.476562"/>
      <use xlink:href="#DejaVuSans-6d" x="91.259766"/>
      <use xlink:href="#DejaVuSans-20" x="188.671875"/>
      <use xlink:href="#DejaVuSans-30" x="220.458984"/>
     </g>
    </g>
   </g>
   <g id="patch_3">
    <path d="M 44.57 53.72 
L 44.57 10.8 
" style="fill: none; stroke: #000000; stroke-width: 0.8; stroke-linejoin: miter; stroke-linecap: square"/>
   </g>
   <g id="patch_4">
    <path d="M 345.176088 53.72 
L 345.176088 10.8 
" style="fill: none; stroke: #000000; stroke-width: 0.8; stroke-linejoin: miter; stroke-linecap: square"/>
   </g>
   <g id="patch_5">
    <path d="M 44.57 53.72 
L 345.176088 53.72 
" style="fill: none; stroke: #000000; stroke-width: 0.8; stroke-linejoin: miter; stroke-linecap: square"/>
   </g>
   <g id="patch_6">
    <path d="M 44.57 10.8 
L 345.176088 10.8 
" style="fill: none; stroke: #000000; stroke-width: 0.8; stroke-linejoin: miter; stroke-linecap: square"/>
   </g>
  </g>
  <g id="axes_2">
   <g id="patch_7">
    <path d="M 44.57 124.52 
L 345.176088 124.52 
L 345.176088 81.6 
L 44.57 81.6 
L 44.57 124.52 
z
" style="fill: none"/>
   </g>
   <g id="PathCollection_2">
    <defs>
     <path id="m05af9408f0" d="M -3 3 
L 3 -3 
M -3 -3 
L 3 3 
" style="stroke: #ca7b81; stroke-width: 1.5"/>
    </defs>
    <g clip-path="url(#p5590759c07)">
     <use xlink:href="#m05af9408f0" x="58.233913" y="103.06" style="fill: #ca7b81; stroke: #ca7b81; stroke-width: 1.5"/>
     <use xlink:href="#m05af9408f0" x="69.620507" y="103.06" style="fill: #ca7b81; stroke: #ca7b81; stroke-width: 1.5"/>
     <use xlink:href="#m05af9408f0" x="81.007102" y="103.06" style="fill: #ca7b81; stroke: #ca7b81; stroke-width: 1.5"/>
     <use xlink:href="#m05af9408f0" x="92.393696" y="103.06" style="fill: #ca7b81; stroke: #ca7b81; stroke-width: 1.5"/>
     <use xlink:href="#m05af9408f0" x="103.78029" y="103.06" style="fill: #ca7b81; stroke: #ca7b81; stroke-width: 1.5"/>
     <use xlink:href="#m05af9408f0" x="115.166884" y="103.06" style="fill: #ca7b81; stroke: #ca7b81; stroke-width: 1.5"/>
     <use xlink:href="#m05af9408f0" x="126.553479" y="103.06" style="fill: #ca7b81; stroke: #ca7b81; stroke-width: 1.5"/>
     <use xlink:href="#m05af9408f0" x="137.940073" y="103.06" style="fill: #ca7b81; stroke: #ca7b81; stroke-width: 1.5"/>
     <use xlink:href="#m05af9408f0" x="149.326667" y="103.06" style="fill: #ca7b81; stroke: #ca7b81; stroke-width: 1.5"/>
     <use xlink:href="#m05af9408f0" x="160.713261" y="103.06" style="fill: #ca7b81; stroke: #ca7b81; stroke-width: 1.5"/>
     <use xlink:href="#m05af9408f0" x="172.099856" y="103.06" style="fill: #ca7b81; stroke: #ca7b81; stroke-width: 1.5"/>
     <use xlink:href="#m05af9408f0" x="183.48645" y="103.06" style="fill: #ca7b81; stroke: #ca7b81; stroke-width: 1.5"/>
     <use xlink:href="#m05af9408f0" x="194.873044" y="103.06" style="fill: #ca7b81; stroke: #ca7b81; stroke-width: 1.5"/>
     <use xlink:href="#m05af9408f0" x="206.259638" y="103.06" style="fill: #ca7b81; stroke: #ca7b81; stroke-width: 1.5"/>
     <use xlink:href="#m05af9408f0" x="217.646233" y="103.06" style="fill: #ca7b81; stroke: #ca7b81; stroke-width: 1.5"/>
     <use xlink:href="#m05af9408f0" x="229.032827" y="103.06" style="fill: #ca7b81; stroke: #ca7b81; stroke-width: 1.5"/>
     <use xlink:href="#m05af9408f0" x="240.419421" y="103.06" style="fill: #ca7b81; stroke: #ca7b81; stroke-width: 1.5"/>
     <use xlink:href="#m05af9408f0" x="251.806015" y="103.06" style="fill: #ca7b81; stroke: #ca7b81; stroke-width: 1.5"/>
     <use xlink:href="#m05af9408f0" x="263.19261" y="103.06" style="fill: #ca7b81; stroke: #ca7b81; stroke-width: 1.5"/>
     <use xlink:href="#m05af9408f0" x="274.579204" y="103.06" style="fill: #ca7b81; stroke: #ca7b81; stroke-width: 1.5"/>
     <use xlink:href="#m05af9408f0" x="285.965798" y="103.06" style="fill: #ca7b81; stroke: #ca7b81; stroke-width: 1.5"/>
     <use xlink:href="#m05af9408f0" x="297.352392" y="103.06" style="fill: #ca7b81; stroke: #ca7b81; stroke-width: 1.5"/>
     <use xlink:href="#m05af9408f0" x="308.738987" y="103.06" style="fill: #ca7b81; stroke: #ca7b81; stroke-width: 1.5"/>
     <use xlink:href="#m05af9408f0" x="320.125581" y="103.06" style="fill: #ca7b81; stroke: #ca7b81; stroke-width: 1.5"/>
     <use xlink:href="#m05af9408f0" x="331.512175" y="103.06" style="fill: #ca7b81; stroke: #ca7b81; stroke-width: 1.5"/>
    </g>
   </g>
   <g id="matplotlib.axis_3">
    <g id="xtick_7">
     <g id="line2d_10">
      <g>
       <use xlink:href="#m3fb7c5ccd0" x="58.233913" y="124.52" style="stroke: #000000; stroke-width: 0.8"/>
      </g>
     </g>
     <g id="text_11">
      <!-- 0 -->
      <g transform="translate(55.052663 139.118438) scale(0.1 -0.1)">
       <use xlink:href="#DejaVuSans-30"/>
      </g>
     </g>
    </g>
    <g id="xtick_8">
     <g id="line2d_11">
      <g>
       <use xlink:href="#m3fb7c5ccd0" x="115.166884" y="124.52" style="stroke: #000000; stroke-width: 0.8"/>
      </g>
     </g>
     <g id="text_12">
      <!-- 5 -->
      <g transform="translate(111.985634 139.118438) scale(0.1 -0.1)">
       <use xlink:href="#DejaVuSans-35"/>
      </g>
     </g>
    </g>
    <g id="xtick_9">
     <g id="line2d_12">
      <g>
       <use xlink:href="#m3fb7c5ccd0" x="172.099856" y="124.52" style="stroke: #000000; stroke-width: 0.8"/>
      </g>
     </g>
     <g id="text_13">
      <!-- 10 -->
      <g transform="translate(165.737356 139.118438) scale(0.1 -0.1)">
       <use xlink:href="#DejaVuSans-31"/>
       <use xlink:href="#DejaVuSans-30" x="63.623047"/>
      </g>
     </g>
    </g>
    <g id="xtick_10">
     <g id="line2d_13">
      <g>
       <use xlink:href="#m3fb7c5ccd0" x="229.032827" y="124.52" style="stroke: #000000; stroke-width: 0.8"/>
      </g>
     </g>
     <g id="text_14">
      <!-- 15 -->
      <g transform="translate(222.670327 139.118438) scale(0.1 -0.1)">
       <use xlink:href="#DejaVuSans-31"/>
       <use xlink:href="#DejaVuSans-35" x="63.623047"/>
      </g>
     </g>
    </g>
    <g id="xtick_11">
     <g id="line2d_14">
      <g>
       <use xlink:href="#m3fb7c5ccd0" x="285.965798" y="124.52" style="stroke: #000000; stroke-width: 0.8"/>
      </g>
     </g>
     <g id="text_15">
      <!-- 20 -->
      <g transform="translate(279.603298 139.118438) scale(0.1 -0.1)">
       <use xlink:href="#DejaVuSans-32"/>
       <use xlink:href="#DejaVuSans-30" x="63.623047"/>
      </g>
     </g>
    </g>
    <g id="xtick_12">
     <g id="line2d_15">
      <g>
       <use xlink:href="#m3fb7c5ccd0" x="342.898769" y="124.52" style="stroke: #000000; stroke-width: 0.8"/>
      </g>
     </g>
     <g id="text_16">
      <!-- 25 -->
      <g transform="translate(336.536269 139.118438) scale(0.1 -0.1)">
       <use xlink:href="#DejaVuSans-32"/>
       <use xlink:href="#DejaVuSans-35" x="63.623047"/>
      </g>
     </g>
    </g>
   </g>
   <g id="matplotlib.axis_4">
    <g id="ytick_4">
     <g id="line2d_16">
      <g>
       <use xlink:href="#m7cf739d69e" x="44.57" y="118.066993" style="stroke: #000000; stroke-width: 0.8"/>
      </g>
     </g>
     <g id="text_17">
      <!-- 25 -->
      <g transform="translate(24.845 121.866212) scale(0.1 -0.1)">
       <use xlink:href="#DejaVuSans-32"/>
       <use xlink:href="#DejaVuSans-35" x="63.623047"/>
      </g>
     </g>
    </g>
    <g id="ytick_5">
     <g id="line2d_17">
      <g>
       <use xlink:href="#m7cf739d69e" x="44.57" y="103.06" style="stroke: #000000; stroke-width: 0.8"/>
      </g>
     </g>
     <g id="text_18">
      <!-- 26 -->
      <g transform="translate(24.845 106.859219) scale(0.1 -0.1)">
       <use xlink:href="#DejaVuSans-32"/>
       <use xlink:href="#DejaVuSans-36" x="63.623047"/>
      </g>
     </g>
    </g>
    <g id="ytick_6">
     <g id="line2d_18">
      <g>
       <use xlink:href="#m7cf739d69e" x="44.57" y="88.053007" style="stroke: #000000; stroke-width: 0.8"/>
      </g>
     </g>
     <g id="text_19">
      <!-- 27 -->
      <g transform="translate(24.845 91.852226) scale(0.1 -0.1)">
       <use xlink:href="#DejaVuSans-32"/>
       <use xlink:href="#DejaVuSans-37" x="63.623047"/>
      </g>
     </g>
    </g>
    <g id="text_20">
     <!-- dim 1 -->
     <g transform="translate(18.765313 117.263906) rotate(-90) scale(0.1 -0.1)">
      <use xlink:href="#DejaVuSans-64"/>
      <use xlink:href="#DejaVuSans-69" x="63.476562"/>
      <use xlink:href="#DejaVuSans-6d" x="91.259766"/>
      <use xlink:href="#DejaVuSans-20" x="188.671875"/>
      <use xlink:href="#DejaVuSans-31" x="220.458984"/>
     </g>
    </g>
   </g>
   <g id="patch_8">
    <path d="M 44.57 124.52 
L 44.57 81.6 
" style="fill: none; stroke: #000000; stroke-width: 0.8; stroke-linejoin: miter; stroke-linecap: square"/>
   </g>
   <g id="patch_9">
    <path d="M 345.176088 124.52 
L 345.176088 81.6 
" style="fill: none; stroke: #000000; stroke-width: 0.8; stroke-linejoin: miter; stroke-linecap: square"/>
   </g>
   <g id="patch_10">
    <path d="M 44.57 124.52 
L 345.176088 124.52 
" style="fill: none; stroke: #000000; stroke-width: 0.8; stroke-linejoin: miter; stroke-linecap: square"/>
   </g>
   <g id="patch_11">
    <path d="M 44.57 81.6 
L 345.176088 81.6 
" style="fill: none; stroke: #000000; stroke-width: 0.8; stroke-linejoin: miter; stroke-linecap: square"/>
   </g>
  </g>
  <g id="axes_3">
   <g id="patch_12">
    <path d="M 44.57 195.32 
L 345.176088 195.32 
L 345.176088 152.4 
L 44.57 152.4 
L 44.57 195.32 
z
" style="fill: none"/>
   </g>
   <g id="PathCollection_3">
    <defs>
     <path id="m01afe980a9" d="M -3 3 
L 3 -3 
M -3 -3 
L 3 3 
" style="stroke: #e8e467; stroke-width: 1.5"/>
    </defs>
    <g clip-path="url(#p179c06f99c)">
     <use xlink:href="#m01afe980a9" x="58.233913" y="173.86" style="fill: #e8e467; stroke: #e8e467; stroke-width: 1.5"/>
     <use xlink:href="#m01afe980a9" x="69.620507" y="173.86" style="fill: #e8e467; stroke: #e8e467; stroke-width: 1.5"/>
     <use xlink:href="#m01afe980a9" x="81.007102" y="173.86" style="fill: #e8e467; stroke: #e8e467; stroke-width: 1.5"/>
     <use xlink:href="#m01afe980a9" x="92.393696" y="173.86" style="fill: #e8e467; stroke: #e8e467; stroke-width: 1.5"/>
     <use xlink:href="#m01afe980a9" x="103.78029" y="173.86" style="fill: #e8e467; stroke: #e8e467; stroke-width: 1.5"/>
     <use xlink:href="#m01afe980a9" x="115.166884" y="173.86" style="fill: #e8e467; stroke: #e8e467; stroke-width: 1.5"/>
     <use xlink:href="#m01afe980a9" x="126.553479" y="173.86" style="fill: #e8e467; stroke: #e8e467; stroke-width: 1.5"/>
     <use xlink:href="#m01afe980a9" x="137.940073" y="173.86" style="fill: #e8e467; stroke: #e8e467; stroke-width: 1.5"/>
     <use xlink:href="#m01afe980a9" x="149.326667" y="173.86" style="fill: #e8e467; stroke: #e8e467; stroke-width: 1.5"/>
     <use xlink:href="#m01afe980a9" x="160.713261" y="173.86" style="fill: #e8e467; stroke: #e8e467; stroke-width: 1.5"/>
     <use xlink:href="#m01afe980a9" x="172.099856" y="173.86" style="fill: #e8e467; stroke: #e8e467; stroke-width: 1.5"/>
     <use xlink:href="#m01afe980a9" x="183.48645" y="173.86" style="fill: #e8e467; stroke: #e8e467; stroke-width: 1.5"/>
     <use xlink:href="#m01afe980a9" x="194.873044" y="173.86" style="fill: #e8e467; stroke: #e8e467; stroke-width: 1.5"/>
     <use xlink:href="#m01afe980a9" x="206.259638" y="173.86" style="fill: #e8e467; stroke: #e8e467; stroke-width: 1.5"/>
     <use xlink:href="#m01afe980a9" x="217.646233" y="173.86" style="fill: #e8e467; stroke: #e8e467; stroke-width: 1.5"/>
     <use xlink:href="#m01afe980a9" x="229.032827" y="173.86" style="fill: #e8e467; stroke: #e8e467; stroke-width: 1.5"/>
     <use xlink:href="#m01afe980a9" x="240.419421" y="173.86" style="fill: #e8e467; stroke: #e8e467; stroke-width: 1.5"/>
     <use xlink:href="#m01afe980a9" x="251.806015" y="173.86" style="fill: #e8e467; stroke: #e8e467; stroke-width: 1.5"/>
     <use xlink:href="#m01afe980a9" x="263.19261" y="173.86" style="fill: #e8e467; stroke: #e8e467; stroke-width: 1.5"/>
     <use xlink:href="#m01afe980a9" x="274.579204" y="173.86" style="fill: #e8e467; stroke: #e8e467; stroke-width: 1.5"/>
     <use xlink:href="#m01afe980a9" x="285.965798" y="173.86" style="fill: #e8e467; stroke: #e8e467; stroke-width: 1.5"/>
     <use xlink:href="#m01afe980a9" x="297.352392" y="173.86" style="fill: #e8e467; stroke: #e8e467; stroke-width: 1.5"/>
     <use xlink:href="#m01afe980a9" x="308.738987" y="173.86" style="fill: #e8e467; stroke: #e8e467; stroke-width: 1.5"/>
     <use xlink:href="#m01afe980a9" x="320.125581" y="173.86" style="fill: #e8e467; stroke: #e8e467; stroke-width: 1.5"/>
     <use xlink:href="#m01afe980a9" x="331.512175" y="173.86" style="fill: #e8e467; stroke: #e8e467; stroke-width: 1.5"/>
    </g>
   </g>
   <g id="matplotlib.axis_5">
    <g id="xtick_13">
     <g id="line2d_19">
      <g>
       <use xlink:href="#m3fb7c5ccd0" x="58.233913" y="195.32" style="stroke: #000000; stroke-width: 0.8"/>
      </g>
     </g>
     <g id="text_21">
      <!-- 0 -->
      <g transform="translate(55.052663 209.918438) scale(0.1 -0.1)">
       <use xlink:href="#DejaVuSans-30"/>
      </g>
     </g>
    </g>
    <g id="xtick_14">
     <g id="line2d_20">
      <g>
       <use xlink:href="#m3fb7c5ccd0" x="115.166884" y="195.32" style="stroke: #000000; stroke-width: 0.8"/>
      </g>
     </g>
     <g id="text_22">
      <!-- 5 -->
      <g transform="translate(111.985634 209.918438) scale(0.1 -0.1)">
       <use xlink:href="#DejaVuSans-35"/>
      </g>
     </g>
    </g>
    <g id="xtick_15">
     <g id="line2d_21">
      <g>
       <use xlink:href="#m3fb7c5ccd0" x="172.099856" y="195.32" style="stroke: #000000; stroke-width: 0.8"/>
      </g>
     </g>
     <g id="text_23">
      <!-- 10 -->
      <g transform="translate(165.737356 209.918438) scale(0.1 -0.1)">
       <use xlink:href="#DejaVuSans-31"/>
       <use xlink:href="#DejaVuSans-30" x="63.623047"/>
      </g>
     </g>
    </g>
    <g id="xtick_16">
     <g id="line2d_22">
      <g>
       <use xlink:href="#m3fb7c5ccd0" x="229.032827" y="195.32" style="stroke: #000000; stroke-width: 0.8"/>
      </g>
     </g>
     <g id="text_24">
      <!-- 15 -->
      <g transform="translate(222.670327 209.918438) scale(0.1 -0.1)">
       <use xlink:href="#DejaVuSans-31"/>
       <use xlink:href="#DejaVuSans-35" x="63.623047"/>
      </g>
     </g>
    </g>
    <g id="xtick_17">
     <g id="line2d_23">
      <g>
       <use xlink:href="#m3fb7c5ccd0" x="285.965798" y="195.32" style="stroke: #000000; stroke-width: 0.8"/>
      </g>
     </g>
     <g id="text_25">
      <!-- 20 -->
      <g transform="translate(279.603298 209.918438) scale(0.1 -0.1)">
       <use xlink:href="#DejaVuSans-32"/>
       <use xlink:href="#DejaVuSans-30" x="63.623047"/>
      </g>
     </g>
    </g>
    <g id="xtick_18">
     <g id="line2d_24">
      <g>
       <use xlink:href="#m3fb7c5ccd0" x="342.898769" y="195.32" style="stroke: #000000; stroke-width: 0.8"/>
      </g>
     </g>
     <g id="text_26">
      <!-- 25 -->
      <g transform="translate(336.536269 209.918438) scale(0.1 -0.1)">
       <use xlink:href="#DejaVuSans-32"/>
       <use xlink:href="#DejaVuSans-35" x="63.623047"/>
      </g>
     </g>
    </g>
   </g>
   <g id="matplotlib.axis_6">
    <g id="ytick_7">
     <g id="line2d_25">
      <g>
       <use xlink:href="#m7cf739d69e" x="44.57" y="188.866993" style="stroke: #000000; stroke-width: 0.8"/>
      </g>
     </g>
     <g id="text_27">
      <!-- 25 -->
      <g transform="translate(24.845 192.666212) scale(0.1 -0.1)">
       <use xlink:href="#DejaVuSans-32"/>
       <use xlink:href="#DejaVuSans-35" x="63.623047"/>
      </g>
     </g>
    </g>
    <g id="ytick_8">
     <g id="line2d_26">
      <g>
       <use xlink:href="#m7cf739d69e" x="44.57" y="173.86" style="stroke: #000000; stroke-width: 0.8"/>
      </g>
     </g>
     <g id="text_28">
      <!-- 26 -->
      <g transform="translate(24.845 177.659219) scale(0.1 -0.1)">
       <use xlink:href="#DejaVuSans-32"/>
       <use xlink:href="#DejaVuSans-36" x="63.623047"/>
      </g>
     </g>
    </g>
    <g id="ytick_9">
     <g id="line2d_27">
      <g>
       <use xlink:href="#m7cf739d69e" x="44.57" y="158.853007" style="stroke: #000000; stroke-width: 0.8"/>
      </g>
     </g>
     <g id="text_29">
      <!-- 27 -->
      <g transform="translate(24.845 162.652226) scale(0.1 -0.1)">
       <use xlink:href="#DejaVuSans-32"/>
       <use xlink:href="#DejaVuSans-37" x="63.623047"/>
      </g>
     </g>
    </g>
    <g id="text_30">
     <!-- dim 2 -->
     <g transform="translate(18.765313 188.063906) rotate(-90) scale(0.1 -0.1)">
      <use xlink:href="#DejaVuSans-64"/>
      <use xlink:href="#DejaVuSans-69" x="63.476562"/>
      <use xlink:href="#DejaVuSans-6d" x="91.259766"/>
      <use xlink:href="#DejaVuSans-20" x="188.671875"/>
      <use xlink:href="#DejaVuSans-32" x="220.458984"/>
     </g>
    </g>
   </g>
   <g id="patch_13">
    <path d="M 44.57 195.32 
L 44.57 152.4 
" style="fill: none; stroke: #000000; stroke-width: 0.8; stroke-linejoin: miter; stroke-linecap: square"/>
   </g>
   <g id="patch_14">
    <path d="M 345.176088 195.32 
L 345.176088 152.4 
" style="fill: none; stroke: #000000; stroke-width: 0.8; stroke-linejoin: miter; stroke-linecap: square"/>
   </g>
   <g id="patch_15">
    <path d="M 44.57 195.32 
L 345.176088 195.32 
" style="fill: none; stroke: #000000; stroke-width: 0.8; stroke-linejoin: miter; stroke-linecap: square"/>
   </g>
   <g id="patch_16">
    <path d="M 44.57 152.4 
L 345.176088 152.4 
" style="fill: none; stroke: #000000; stroke-width: 0.8; stroke-linejoin: miter; stroke-linecap: square"/>
   </g>
  </g>
 </g>
 <defs>
  <clipPath id="p88c1d20670">
   <rect x="44.57" y="10.8" width="300.606088" height="42.92"/>
  </clipPath>
  <clipPath id="p5590759c07">
   <rect x="44.57" y="81.6" width="300.606088" height="42.92"/>
  </clipPath>
  <clipPath id="p179c06f99c">
   <rect x="44.57" y="152.4" width="300.606088" height="42.92"/>
  </clipPath>
 </defs>
</svg>
